# xmcd CD database file
#
# Track frame offsets:
#	150
#	36471
#	88759
#	125282
#	171622
#	205994
#	220839
#	243385
#	291618
#	326693
#
# Disc length: 4715 seconds
#
# Revision: 0
# Processed by: cddbd v1.5.1PL0 Copyright (c) Steve Scherf et al.
# Submitted via: CDex 1.50
#
DISCID=a312690a
DTITLE=Pablo Ablanedo octet - Alegria
DYEAR=2004
DGENRE=Jazz
TTITLE0=Alegría
TTITLE1=La Procesión
TTITLE2=Una Más
TTITLE3=Coral
TTITLE4=Espíritu Mágico
TTITLE5=Lux
TTITLE6=El Grito Sagrado
TTITLE7=La Vida Sigue
TTITLE8=Naif
TTITLE9=Y Así Se Va
EXTD=YEAR: 2004
EXTT0=
EXTT1=
EXTT2=
EXTT3=
EXTT4=
EXTT5=
EXTT6=
EXTT7=
EXTT8=
EXTT9=
PLAYORDER=
